# AST/ASF file generated using VICON BodyLanguage
# -----------------------------------------------
:version 1.10
:name VICON
:units
  mass 1.0
  length 0.45
  angle deg
:documentation
   .ast/.asf automatically generated from VICON data using
   VICON BodyBuilder and BodyLanguage model FoxedUp or BRILLIANT.MOD
:root
   order TX TY TZ RX RY RZ
   axis XYZ
   position 0 0 0  
   orientation 0 0 0 
:bonedata
  begin
     id 1 
     name lhipjoint
     direction 0.690799 -0.707083 0.151096 
     length 2.54797 
     axis 0 0 0  XYZ
  end
  begin
     id 2 
     name lfemur
     direction 0.34202 -0.939693 0  
     length 7.21646  
     axis 0 0 20  XYZ
    dof rx ry rz
    limits (-160.0 20.0)
           (-70.0 70.0)
           (-60.0 70.0)
  end
  begin
     id 3 
     name ltibia
     direction 0.34202 -0.939693 0   
     length 8.16759   
     axis 0 0 20   XYZ
    dof rx
    limits (-10.0 170.0)
  end
  begin
     id 4 
     name lfoot
     direction 0.0487203 -0.133858 0.989802   
     length 1.93375   
     axis -90 7.62852e-016 20   XYZ
    dof rx rz
    limits (-45.0 90.0)
           (-70.0 20.0)
  end
  begin
     id 5 
     name ltoes
     direction 1.53453e-011 -4.21783e-011 1   
     length 0.979747   
     axis -90 7.62852e-016 20   XYZ
    dof rx
    limits (-90.0 20.0)
  end
  begin
     id 6 
     name rhipjoint
     direction -0.694693 -0.703425 0.150315   
     length 2.56122  
     axis 0 0 0  XYZ 
  end
  begin
     id 7 
     name rfemur
     direction -0.34202 -0.939693 0   
     length 7.36786   
     axis 0 0 -20   XYZ
    dof rx ry rz
    limits (-160.0 20.0)
           (-70.0 70.0)
           (-70.0 60.0)
  end
  begin
     id 8 
     name rtibia
     direction -0.34202 -0.939693 0   
     length 8.07288   
     axis 0 0 -20   XYZ
    dof rx
    limits (-10.0 170.0)
 end
 begin
     id 9 
     name rfoot
     direction -0.0428397 -0.117701 0.992125   
     length 1.88295  
     axis -90 -7.62852e-016 -20   XYZ
    dof rx rz
    limits (-45.0 90.0)
           (-20.0 70.0)
  end
  begin
     id 10 
     name rtoes
     direction -1.53456e-011 -4.2187e-011 1   
     length 0.955578   
     axis -90 -7.62852e-016 -20   XYZ
    dof rx
    limits (-90.0 20.0)
  end
  begin
     id 11 
     name lowerback
     direction 0.0288145 0.999398 -0.0193241   
     length 1.92149   
     axis 0 0 0   XYZ
    dof rx ry rz
    limits (-20.0 45.0)
           (-30.0 30.0)
           (-30.0 30.0)
  end
  begin
     id 12 
     name upperback
     direction 0.0233784 0.998099 0.0570278   
     length 1.90435   
     axis 0 0 0   XYZ
    dof rx ry rz
    limits (-20.0 45.0)
           (-30.0 30.0)
           (-30.0 30.0)
  end
  begin
     id 13 
     name thorax
     direction 0.0096694 0.997833 0.0650817   
     length 1.9111   
     axis 0 0 0   XYZ
    dof rx ry rz
    limits (-20.0 45.0)
           (-30.0 30.0)
           (-30.0 30.0)
  end
  begin
     id 14 
     name lowerneck
     direction 0.00516803 0.999916 0.0118722   
     length 1.74664   
     axis 0 0 0   XYZ
    dof rx ry rz
    limits (-20.0 45.0)
           (-30.0 30.0)
           (-30.0 30.0)
  end
  begin
     id 15 
     name upperneck
     direction -0.0510851 0.996117 -0.071696   
     length 1.68498   
     axis 0 0 0   XYZ
    dof rx ry rz
    limits (-20.0 45.0)
           (-30.0 30.0)
           (-30.0 30.0)
  end
  begin
     id 16
     name head
     direction -0.019188 0.999436 -0.0275702  
     length 1.83483  
     axis 0 0 0   XYZ
    dof rx ry rz
    limits (-20.0 45.0)
           (-30.0 30.0)
           (-30.0 30.0)
  end
  begin
     id 17 
     name lclavicle
     direction 0.967006 0.248456 -0.0562957  
     length 3.39395  
     axis 0 0 0   XYZ
    dof ry rz
    limits (-20.0 10.0)
           (0.0 20.0)
  end
  begin
     id 18 
     name lhumerus
     direction 1 -4.48962e-011 -5.62711e-019   
     length 5.24318   
     axis 180 -30 -90   XYZ
    dof rx ry rz
    limits (-60.0 90.0)
           (-90.0 90.0)
           (-90.0 90.0)
  end
  begin
     id 19
     name lradius
     direction 1 -4.48966e-011 7.90625e-027   
     length 2.98999   
     axis 180 -30 -90   XYZ
    dof rx
    limits (-10.0 170.0)
  end
  begin
     id 20
     name lwrist
     direction 1 -4.48959e-011 1.61068e-026   
     length 1.49499   
     axis -9.31229e-015 90 90   XYZ
    dof ry
    limits (-180.0 0.0)
 end
  begin
     id 21 
     name lhand
     direction 1 -4.49017e-011 3.22136e-026   
     length 0.726745   
     axis -2.0555e-014 90 90   XYZ
    dof rx rz
    limits (-90.0 90.0)
           (-45.0 45.0)
  end
  begin
     id 22 
     name lfingers
     direction 1 -4.4898e-011 6.44272e-026   
     length 0.58592   
     axis -4.11101e-014 90 90   XYZ
    dof rx
    limits (0.0 90.0)
  end
  begin
     id 23
     name lthumb
     direction 0.707107 -6.34922e-011 0.707107   
     length 0.841268   
     axis -90 45 2.85299e-015   XYZ
    dof rx rz
    limits (-45.0 45.0)
           (-45.0 45.0)
  end
  begin
     id 24 
     name rclavicle
     direction -0.972232 0.230238 0.0419005   
     length 3.40416  
     axis 0 0 0   XYZ 
    dof ry rz
    limits (-10.0 20.0)
           (-20.0 0.0)
  end
  begin
     id 25 
     name rhumerus
     direction -1 -4.48976e-011 2.48487e-027  
     length 5.37045   
     axis 180 30 90   XYZ
    dof rx ry rz
    limits (-90.0 60.0)
           (-90.0 90.0)
           (-90.0 90.0)
  end
  begin
     id 26 
     name rradius
     direction -1 -4.48942e-011 7.87951e-027   
     length 2.92792   
     axis 180 30 90   XYZ
    dof rx
    limits (-10.0 170.0)
  end
  begin
     id 27 
     name rwrist
     direction -1 -4.48969e-011 1.61068e-026   
     length 1.46396   
     axis -9.31229e-015 -90 -90   XYZ
    dof ry
    limits (-180.0 0.0)
  end
  begin
     id 28
     name rhand
     direction -1 -4.49043e-011 3.22136e-026   
     length 0.784497   
     axis -2.0555e-014 -90 -90   XYZ
    dof rx rz
    limits (-90.0 90.0)
           (-45.0 45.0)
  end
  begin
     id 29
     name rfingers
     direction -1 -4.48823e-011 6.44272e-026   
     length 0.632482   
     axis -4.11101e-014 -90 -90   XYZ
    dof rx
    limits (0.0 90.0)
  end
  begin
     id 30
     name rthumb
     direction -0.707107 -6.34923e-011 0.707107   
     length 0.908121   
     axis -90 -45 -2.85299e-015   XYZ
    dof rx rz
    limits (-45.0 45.0)
           (-45.0 45.0)
  end
:hierarchy
  begin
    root lhipjoint rhipjoint lowerback
    lhipjoint lfemur
    lfemur ltibia
    ltibia lfoot
    lfoot ltoes
    rhipjoint rfemur
    rfemur rtibia
    rtibia rfoot
    rfoot rtoes
    lowerback upperback
    upperback thorax
    thorax lowerneck lclavicle rclavicle
    lowerneck upperneck
    upperneck head
    lclavicle lhumerus
    lhumerus lradius
    lradius lwrist
    lwrist lhand lthumb
    lhand lfingers
    rclavicle rhumerus
    rhumerus rradius
    rradius rwrist
    rwrist rhand rthumb
    rhand rfingers
  end

#!OML:ASF E:\Style6\Style6.ASF
:FULLY-SPECIFIED
:DEGREES
1986
root 2.90235 16.8462 -1.75829 21.1011 -14.7832 -4.33701
lowerback 27.1242 -0.2269 2.00451
upperback 11.3528 0.147525 2.64409
thorax -2.35698 -0.0219188 1.69494
lowerneck -5.31839 -3.48375 3.70659
upperneck -21.0692 -5.2072 -0.539972
head -5.62277 -2.9452 -0.607203
rclavicle -2.62396e-014 -2.51214e-014
rhumerus 12.5875 22.8452 -83.5633
rradius 118.275
rwrist 29.6555
rhand -35.1718 16.0011
rfingers 7.12502
rthumb -8.31054 -13.8154
lclavicle -2.62396e-014 -2.51214e-014
lhumerus 15.6961 -27.7663 78.3285
lradius 118.222
lwrist -20.9432
lhand 1.9147 28.4895
lfingers 7.12502
lthumb 27.423 56.5136
rfemur -52.5129 0.874034 14.2242
rtibia 37.7782
rfoot -0.232371 -0.986306
rtoes -25.9499
lfemur -54.495 7.44121 -26.2885
ltibia 53.0146
lfoot -12.7463 12.5113
ltoes -6.73068
1987
root 2.92989 16.8101 -1.74502 20.7778 -15.5759 -4.41479
lowerback 27.2069 -0.289781 2.12383
upperback 11.4502 0.0798585 2.54527
thorax -2.28464 -0.0530078 1.53847
lowerneck -5.3 -3.26274 3.8236
upperneck -21.013 -4.94079 -0.788681
head -5.60999 -2.80675 -0.714854
rclavicle -1.67228e-014 7.05437e-014
rhumerus 12.8854 22.9526 -83.3526
rradius 118.103
rwrist 30.4419
rhand -35.2052 15.7827
rfingers 7.12502
rthumb -8.34284 -14.0325
lclavicle -1.67228e-014 7.05437e-014
lhumerus 15.5939 -27.9551 78.4529
lradius 118.565
lwrist -20.7339
lhand 1.80702 28.7481
lfingers 7.12502
lthumb 27.32 56.7885
rfemur -52.6915 0.732743 14.4326
rtibia 38.3761
rfoot -0.264153 -0.158498
rtoes -24.4151
lfemur -54.4007 7.818 -26.411
ltibia 53.6367
lfoot -12.9414 12.9096
ltoes -6.82091
1988
root 2.96084 16.7779 -1.7228 20.3718 -16.3617 -4.44329
lowerback 27.1595 -0.454866 2.4681
upperback 11.659 -0.0823943 2.2692
thorax -2.02595 -0.116821 1.08486
lowerneck -5.29599 -3.05477 3.93871
upperneck -21.003 -4.65594 -0.813623
head -5.60345 -2.67363 -0.752125
rclavicle -5.50634e-014 5.14231e-014
rhumerus 13.1564 22.8161 -83.5052
rradius 117.813
rwrist 31.3657
rhand -34.8516 15.958
rfingers 7.12502
rthumb -8.00159 -13.8705
lclavicle -5.50634e-014 5.14231e-014
lhumerus 15.7934 -28.2159 78.2084
lradius 118.897
lwrist -20.5841
lhand 0.847744 28.8937
lfingers 7.12502
lthumb 26.4021 57.0752
rfemur -52.7302 0.563352 14.5553
rtibia 38.8919
rfoot -0.290633 0.759289
rtoes -24.3895
lfemur -54.1283 8.11682 -26.5688
ltibia 54.1455
lfoot -13.2071 13.4269
ltoes -7.25491
1989
root 2.99015 16.7523 -1.7037 19.9742 -17.0592 -4.32204
lowerback 27.7123 -0.449394 2.14792
upperback 11.5235 -0.123919 2.44212
thorax -2.43464 -0.157845 1.47558
lowerneck -5.59122 -2.84647 3.61118
upperneck -20.6088 -4.41235 -1.06468
head -5.42001 -2.51171 -0.794542
rclavicle -3.21472e-015 -9.92681e-015
rhumerus 13.0744 22.7346 -83.3347
rradius 117.361
rwrist 32.151
rhand -33.99 16.6366
rfingers 7.12502
rthumb -7.16987 -13.222
lclavicle -3.21472e-015 -9.92681e-015
lhumerus 15.4218 -28.2334 78.9411
lradius 119.303
lwrist -20.9226
lhand -0.297977 28.6186
lfingers 7.12502
lthumb 25.3049 56.96
rfemur -52.757 0.435195 14.4628
rtibia 39.3063
rfoot -0.300399 1.49818
rtoes -24.2664
lfemur -53.8656 8.38636 -26.8706
ltibia 54.5514
lfoot -13.483 13.757
ltoes -7.48418
1990
root 3.01399 16.7289 -1.69088 19.576 -17.7896 -4.07138
lowerback 27.8343 -0.525383 1.8851
upperback 11.6145 -0.298838 2.28822
thorax -2.38838 -0.250249 1.50914
lowerneck -5.45896 -2.57803 3.74661
upperneck -20.6993 -4.07114 -1.26746
head -5.46749 -2.3413 -0.889442
rclavicle -2.80286e-014 -2.86498e-014
rhumerus 13.4106 22.6623 -83.4373
rradius 116.702
rwrist 32.8266
rhand -32.7538 16.8625
rfingers 7.12502
rthumb -5.97651 -13.0332
lclavicle -2.80286e-014 -2.86498e-014
lhumerus 15.4542 -28.1181 79.0252
lradius 119.783
lwrist -21.4562
lhand -1.49001 28.1566
lfingers 7.12502
lthumb 24.1625 56.6548
rfemur -52.8035 0.492957 14.1533
rtibia 39.661
rfoot -0.324445 2.05854
rtoes -24.8917
lfemur -53.6006 8.7527 -27.3195
ltibia 54.8534
lfoot -13.7271 13.9461
ltoes -7.27381
1991
root 3.0346 16.7107 -1.67943 19.1609 -18.4649 -3.95259
lowerback 28.0569 -0.55342 1.77779
upperback 11.7192 -0.369763 2.23271
thorax -2.3728 -0.291131 1.53296
lowerneck -5.29688 -2.3501 3.92401
upperneck -20.7962 -3.81827 -1.66962
head -5.52724 -2.20528 -1.05151
rclavicle 6.06293e-015 7.00716e-015
rhumerus 13.4254 22.669 -83.2902
rradius 116.232
rwrist 33.3794
rhand -31.3972 16.3668
rfingers 7.12502
rthumb -4.66667 -13.5618
lclavicle 6.06293e-015 7.00716e-015
lhumerus 15.6573 -28.1723 79.2479
lradius 120.154
lwrist -22.0487
lhand -2.8891 27.5548
lfingers 7.12502
lthumb 22.8204 56.2248
rfemur -52.7085 0.745912 13.9122
rtibia 39.9553
rfoot -0.364843 2.5017
rtoes -26.1516
lfemur -53.2687 9.22086 -27.6321
ltibia 55.0733
lfoot -13.9396 14.0782
ltoes -7.45336
1992
root 3.05771 16.6976 -1.66649 18.8024 -19.0221 -3.80259
lowerback 28.1916 -0.600341 1.82271
upperback 11.8483 -0.427719 2.22295
thorax -2.28882 -0.321773 1.51454
lowerneck -5.03639 -2.19001 4.04834
upperneck -21.0704 -3.66868 -2.11118
head -5.66067 -2.11483 -1.21229
rclavicle 1.54058e-014 -3.66261e-014
rhumerus 13.2195 22.6416 -82.9582
rradius 115.977
rwrist 33.7144
rhand -29.5767 15.5888
rfingers 7.12502
rthumb -2.90867 -14.3711
lclavicle 1.54058e-014 -3.66261e-014
lhumerus 15.9729 -28.3368 79.5705
lradius 120.591
lwrist -22.6225
lhand -4.28466 26.9853
lfingers 7.12502
lthumb 21.4806 55.8143
rfemur -52.6155 1.01914 13.5961
rtibia 40.1785
rfoot -0.411471 2.77212
rtoes -27.1389
lfemur -52.9657 9.58359 -27.942
ltibia 55.1956
lfoot -14.1048 14.1216
ltoes -7.6773
1993
root 3.08363 16.6889 -1.64923 18.5259 -19.4562 -3.52692
lowerback 28.1941 -0.678364 1.877
upperback 11.9544 -0.521368 2.24159
thorax -2.16886 -0.368817 1.53022
lowerneck -4.88758 -2.09076 3.8824
upperneck -21.2721 -3.56948 -2.321
head -5.74501 -2.04148 -1.25194
rclavicle -1.0371e-014 5.69953e-016
rhumerus 13.0609 22.6091 -82.5221
rradius 115.754
rwrist 33.553
rhand -27.2448 14.5415
rfingers 7.12502
rthumb -0.656513 -15.4373
lclavicle -1.0371e-014 5.69953e-016
lhumerus 16.3018 -28.4843 79.9632
lradius 121.13
lwrist -22.9645
lhand -5.8971 26.7613
lfingers 7.12502
lthumb 19.9313 55.7592
rfemur -52.5664 1.25743 13.1084
rtibia 40.2941
rfoot -0.501357 2.89189
rtoes -28.1884
lfemur -52.735 9.85928 -28.4087
ltibia 55.2323
lfoot -14.0793 14.1812
ltoes -8.47511
1994
root 3.10838 16.6852 -1.62993 18.3509 -19.9059 -3.31245
lowerback 28.1613 -0.764915 1.97927
upperback 12.0145 -0.614344 2.23385
thorax -2.08515 -0.412674 1.48901
lowerneck -4.74946 -1.9608 3.76718
upperneck -21.4344 -3.42768 -2.53628
head -5.81482 -1.94948 -1.30416
rclavicle 8.05078e-015 2.37548e-014
rhumerus 12.9515 22.5422 -82.3235
rradius 115.684
rwrist 32.965
rhand -24.6792 13.4405
rfingers 7.12502
rthumb 1.82143 -16.5315
lclavicle 8.05078e-015 2.37548e-014
lhumerus 16.6794 -28.5302 80.2083
lradius 121.65
lwrist -23.2091
lhand -7.45218 26.7197
lfingers 7.12502
lthumb 18.4359 55.866
rfemur -52.5132 1.59335 12.6334
rtibia 40.2552
rfoot -0.524728 2.93342
rtoes -28.8151
lfemur -52.541 10.1299 -28.805
ltibia 55.2129
lfoot -14.207 14.1641
ltoes -7.86557
1995
root 3.12941 16.6867 -1.61212 18.3933 -20.5189 -3.31097
lowerback 28.0441 -0.756102 2.17624
upperback 12.0538 -0.569457 2.22824
thorax -1.98827 -0.38655 1.35495
lowerneck -4.65867 -1.81864 3.92722
upperneck -21.5558 -3.31525 -3.01809
head -5.87277 -1.87601 -1.48772
rclavicle 2.13694e-014 -3.61788e-014
rhumerus 12.8245 22.3652 -82.3517
rradius 115.764
rwrist 32.077
rhand -22.4387 12.4302
rfingers 7.12502
rthumb 3.98512 -17.5123
lclavicle 2.13694e-014 -3.61788e-014
lhumerus 17.0991 -28.5057 80.3535
lradius 122.141
lwrist -23.4926
lhand -8.7416 26.5178
lfingers 7.12502
lthumb 17.1952 55.7769
rfemur -52.5505 2.21076 12.2832
rtibia 40.0491
rfoot -0.427141 2.80832
rtoes -28.5139
lfemur -52.496 10.6008 -29.0506
ltibia 55.1619
lfoot -14.4679 14.0515
ltoes -6.69747
1996
root 3.14498 16.693 -1.59877 18.5885 -21.2567 -3.55455
lowerback 27.9811 -0.641802 2.34062
upperback 12.0599 -0.395236 2.31555
thorax -1.95296 -0.302567 1.30572
lowerneck -4.67425 -1.71209 3.83854
upperneck -21.5706 -3.20971 -3.24178
head -5.87152 -1.80379 -1.54848
rclavicle -3.72224e-014 -2.76808e-014
rhumerus 12.704 22.1582 -82.417
rradius 115.909
rwrist 30.9636
rhand -20.5738 11.8673
rfingers 7.12502
rthumb 5.78587 -18.0337
lclavicle -3.72224e-014 -2.76808e-014
lhumerus 17.241 -28.3675 80.6201
lradius 122.521
lwrist -24.0005
lhand -9.99163 25.8997
lfingers 7.12502
lthumb 15.9917 55.2596
rfemur -52.6243 3.09605 12.116
rtibia 39.7001
rfoot -0.247986 2.55092
rtoes -28.1714
lfemur -52.5421 11.2489 -29.07
ltibia 55.0698
lfoot -14.7293 13.8302
ltoes -5.24946
1997
root 3.16112 16.7086 -1.58566 18.7565 -22.0243 -3.7155
lowerback 28.0478 -0.511152 2.37486
upperback 12.0236 -0.224565 2.4088
thorax -2.02486 -0.225328 1.34066
lowerneck -4.74752 -1.62737 3.61554
upperneck -21.4536 -3.10982 -3.33792
head -5.81538 -1.73216 -1.54619
rclavicle -1.45113e-014 -1.49089e-014
rhumerus 12.6237 21.8506 -82.4305
rradius 115.853
rwrist 29.7309
rhand -19.4161 11.8119
rfingers 7.12502
rthumb 6.9035 -18.0556
lclavicle -1.45113e-014 -1.49089e-014
lhumerus 17.2018 -28.1598 81.0161
lradius 122.864
lwrist -24.5604
lhand -10.9137 25.158
lfingers 7.12502
lthumb 15.1036 54.5869
rfemur -52.6674 3.95609 11.8747
rtibia 39.276
rfoot -0.0220556 2.33948
rtoes -28.6624
lfemur -52.5323 11.8652 -29.17
ltibia 54.8576
lfoot -14.8133 13.7212
ltoes -4.75764
